<?xml version="1.0" encoding="UTF-8"?>
<svg width="203px" height="203px" viewBox="0 0 203 203" version="1.1" xmlns="http://www.w3.org/2000/svg" xmlns:xlink="http://www.w3.org/1999/xlink">
    <title>logo</title>
    <g id="logo" stroke="none" stroke-width="1" fill="none" fill-rule="evenodd">
        <path d="M169.098879,5.37353966 C172.676306,5.37353966 175.087181,7.93290753 175.190311,11.9292818 L175.193755,12.1978233 C174.510099,48.2588655 174.510099,67.1024955 175.193755,68.7287135 C175.877411,70.3549316 183.98136,78.8309172 199.505604,94.1566704 C202.18735,96.9232718 203,99.5054332 203,102.733135 C203,108.542998 198.936749,112.6929 193.573259,112.6929 C190.756072,112.6929 188.240312,111.324653 186.171111,109.164597 C184.101911,107.00454 176.563854,100.401196 175.190311,101.17723 C173.816768,101.953264 177.791992,118.396854 177.791992,132.850875 C177.791992,147.304896 177.791992,168.214929 175.208333,180.898744 C172.624674,193.582558 167.53242,202.83117 155.109434,202.997479 L154.73153,203 L48.186889,203 C35.7490666,203 26.760782,197.94914 25.7958984,179.595732 C24.8310149,161.242325 24.8310149,154.984513 25.7958984,139.192266 C26.760782,123.400018 30.6157227,100.450179 28.6196289,99.1405001 C27.2888997,98.2673808 23.4375743,101.524507 17.0656525,108.911878 C15.0310174,111.131991 12.619598,112.582464 9.83139433,112.686861 L9.50800641,112.6929 C4.14451561,112.6929 0,108.542998 0,102.733135 C0,99.6167333 0.757571575,97.1021195 3.22359767,94.4422466 L3.49439552,94.1566704 C23.7436732,69.4435392 39.3191091,51.5303686 50.2207031,40.4171584 C64.9423828,25.409709 80.6015344,11.8938637 84.7226563,8.73282114 C88.8437781,5.57177855 96.8678943,0 101.5,0 C105.99976,0 110.269457,1.82753789 114.085601,5.65169201 L114.421137,5.99430321 C135.788588,29.4574694 146.917358,40.9317545 147.807446,40.4171584 C148.697534,39.9025623 148.697534,30.4961173 147.807446,12.1978233 C147.807446,8.13813636 150.140551,5.49051443 153.741647,5.377319 L153.983587,5.37353966 L169.098879,5.37353966 Z M85.5316864,86.6311198 C84.5540637,86.6311198 83.5610455,86.6399567 82.5526316,86.6576305 C81.5442177,86.6753043 80.6820623,86.72538 79.9661654,86.8078578 L79.8682492,89.9933827 L79.7777229,93.6681182 L79.653942,99.8825782 L79.2830555,120.358177 L79.2271751,122.774032 L78.6293114,122.790724 L77.9596014,122.817234 L77.2180451,122.853564 L75.7541515,122.937337 L74.7066327,123.003791 L72.8976459,123.129471 C72.5935822,123.151727 72.2882355,123.174638 71.9816058,123.198203 C71.0617168,123.268898 70.176468,123.360213 69.3258593,123.472147 L67.0338346,123.781438 L66.9699668,121.580222 L66.857707,116.308522 L66.849087,115.845904 C66.7913534,112.723533 66.7576754,109.666621 66.7480532,106.675168 L66.7451665,104.888151 L66.7516615,98.2820172 L66.7621658,94.3773971 L66.7708259,92.8758609 L66.7898299,90.7312563 L66.8263945,88.0728229 C66.8299761,87.86086 66.8336914,87.6512906 66.8375403,87.4441144 L66.2491192,87.4487096 L65.5923416,87.4624951 L64.8672073,87.4854711 L64.0737164,87.5176374 L63.211869,87.5589941 C62.0918367,87.6164339 60.9501544,87.6805014 59.786822,87.7511966 L58.036501,87.8617959 L56.9316238,87.9380141 L55.8996354,88.015337 L54.2418613,88.155665 L52.8943998,88.2863249 L52.4212198,88.3411497 L52.2655747,88.3631518 L52.2096378,89.5753397 L52.1605937,90.9092604 L52.1059235,92.8771834 L52.0729623,94.4951473 L52.0425129,96.5502089 L52.0188946,98.8949811 L52.0047237,101.37384 L52.0005891,105.054158 L52.0094259,108.33959 L52.0288668,111.750002 L52.0589119,115.285392 L52.099561,118.945761 L52.1154672,120.193657 C52.1924454,126.049575 52.2944415,131.982079 52.4214554,137.99117 L52.4999731,141.561983 L52.6264098,146.788301 L52.7164742,150.185912 L52.8111574,153.514241 L52.9189634,157.042481 L53.0989964,162.388285 L53.2847828,167.247539 L53.4726439,171.555027 L53.605966,174.291692 L53.7116654,176.247921 L53.8124537,177.909308 L53.8705693,178.764616 L54.9384103,178.754718 L55.9163024,178.734305 L57.0459184,178.702758 C58.3853383,178.661519 59.8017365,178.590823 61.2951128,178.490672 L62.7570563,178.387575 C62.9954748,178.369901 63.2312739,178.351982 63.4644535,178.333817 L64.8320988,178.221883 C65.0548009,178.202736 65.2748836,178.183344 65.4923469,178.163707 L66.1752259,178.097686 L66.8004667,178.028159 L67.3680693,177.955127 L67.8780337,177.878589 L68.3303599,177.798546 C68.4009444,177.784913 68.4691274,177.771134 68.5349087,177.757209 L68.5101919,176.256099 L68.4021214,172.181127 L68.2579051,167.063661 L67.7561976,147.955302 L67.5996241,142.851463 L68.8492362,142.843608 L70.1409858,142.8244 L71.9758324,142.789605 C72.5454708,142.777823 73.1151092,142.760803 73.6847476,142.738547 L74.5392052,142.701236 C75.1800483,142.670307 75.8035714,142.647662 76.4097744,142.633302 L77.0102041,142.621704 C77.8030791,142.609921 78.5112782,142.580465 79.1348013,142.533335 L79.1688,175.687412 C79.1692276,176.764859 79.1694415,177.843615 79.1694415,178.92368 C80.9091479,178.92368 82.6738722,178.894224 84.4636144,178.835311 L85.7748892,178.78726 L87.0241004,178.731477 L88.211248,178.667962 L89.3363319,178.596715 L90.5729929,178.506777 L91.3562912,178.442618 L92.0159917,178.381283 L92.3871267,178.341961 C92.4444048,178.335512 92.4993941,178.329115 92.5520945,178.322771 L92.5749029,174.685024 L92.638695,168.876127 L92.7815857,158.82375 L92.8633848,153.715798 L92.938792,149.524584 L93.023625,145.272773 L93.2333512,135.672368 L93.4238722,127.634325 L93.6208734,120.039643 L93.7236157,116.333196 L93.809924,113.350247 L93.9149897,109.984046 L93.9878962,107.815866 L94.1015504,104.677526 L94.2959578,99.8504119 L94.4926369,95.4213587 L94.6253907,92.7034445 L94.6964091,91.3876335 L94.8139739,89.4783744 L94.8607201,88.8139864 L94.9305399,87.9238142 L94.9768866,87.4013059 C94.9845977,87.3189505 94.9923022,87.2389598 95,87.1613337 C94.5843179,87.0797623 94.0784484,87.007603 93.4823915,86.9448558 L92.8562721,86.885246 C92.7469085,86.8758339 92.6350396,86.8666833 92.5206656,86.8577941 L91.8043587,86.8075963 L91.027927,86.7636733 C89.2805227,86.6753043 87.4484425,86.6311198 85.5316864,86.6311198 Z M104,89.6406598 L104.064175,91.1171476 L104.064175,91.1171476 L104.122444,92.7178328 L104.122444,92.7178328 L104.158011,93.8539548 L104.158011,93.8539548 L104.22127,96.2917954 L104.22127,96.2917954 L104.274032,98.9504313 L104.274032,98.9504313 L104.326467,102.552074 L104.326467,102.552074 L104.365041,105.94869 L104.365041,105.94869 L104.404509,110.687186 L104.404509,110.687186 L104.425137,114.398314 L104.425137,114.398314 C104.440054,117.757001 104.449999,121.123481 104.454971,124.497753 L104.458253,132.063917 L104.458253,132.063917 L104.425758,162.166091 L104.425758,162.166091 L104.419087,176.274887 L104.419087,176.274887 L104.405084,177.437943 C104.404331,177.467585 104.403557,177.494874 104.402761,177.519811 L105.118715,177.644934 L105.118715,177.644934 L105.955021,177.777526 L105.955021,177.777526 L106.911678,177.917589 L106.911678,177.917589 L107.988687,178.065121 L107.988687,178.065121 L108.374435,178.115959 C110.074982,178.338053 111.930294,178.530924 113.940371,178.694572 C115.663294,178.834842 117.310871,178.910703 118.883101,178.922511 L119.662937,178.922511 L119.653027,176.34232 L119.653027,176.34232 L119.594062,170.208786 L119.594062,170.208786 L119.500714,162.800229 L119.500714,162.800229 L119.448504,159.195095 L119.448504,159.195095 L119.356205,153.659544 L119.356205,153.659544 L119.200241,145.448079 L119.200241,145.448079 L119.059193,138.532326 L119.059193,138.532326 L118.935696,133.552067 L118.935696,133.552067 L118.865196,131.168829 L118.865196,131.168829 L118.820019,129.859986 L118.820019,129.859986 L118.740078,127.967373 L118.740078,127.967373 L118.689327,127.005079 L118.689327,127.005079 L118.636485,126.172742 L118.636485,126.172742 L118.600095,125.690048 L118.600095,125.690048 L120.06029,129.804683 L120.06029,129.804683 L121.962033,135.210874 L121.962033,135.210874 L125.676387,145.845093 L125.676387,145.845093 L128.155109,152.987174 L128.155109,152.987174 L131.405889,162.397654 L131.405889,162.397654 L134.077035,170.074543 L134.077035,170.074543 L136.713164,177.765284 L136.713164,177.765284 C137.623106,178.022445 138.740022,178.19486 140.063913,178.282529 C141.387804,178.370198 142.754582,178.414032 144.164247,178.414032 C145.126398,178.414032 146.073633,178.396499 147.005951,178.361431 L147.6954,178.334035 L147.6954,178.334035 L149.015562,178.272666 C149.229063,178.261708 149.4393,178.250384 149.646275,178.238695 L149.699093,177.966584 C149.70782,177.91707 149.716509,177.865476 149.72516,177.811802 L149.776609,177.464785 L149.776609,177.464785 L149.827144,177.06783 L149.827144,177.06783 L149.901235,176.378766 L149.901235,176.378766 L149.973271,175.577342 L149.973271,175.577342 L150.043252,174.663559 L150.043252,174.663559 L150.111178,173.637418 L150.111178,173.637418 L150.212308,171.849424 L150.212308,171.849424 L150.324186,169.59305 L150.324186,169.59305 L150.433267,167.105449 L150.433267,167.105449 L150.539552,164.386622 L150.539552,164.386622 L150.625403,161.949964 L150.625403,161.949964 L150.688489,159.92579 L150.688489,159.92579 L150.772048,156.781769 L150.772048,156.781769 L150.820373,154.613916 L150.820373,154.613916 L150.862794,152.388591 L150.862794,152.388591 L150.89931,150.105794 L150.89931,150.105794 C150.966437,145.482729 151,140.815829 151,136.105095 L150.99726,133.589539 L150.99726,133.589539 L150.989041,131.012436 L150.989041,131.012436 L150.966437,127.03138 L150.966437,127.03138 C150.944061,123.88115 150.903039,120.725075 150.843371,117.563156 L150.690315,109.859264 L150.690315,109.859264 L150.634124,107.261941 L150.634124,107.261941 L150.579583,105.104194 L150.579583,105.104194 L150.51805,103.015486 L150.51805,103.015486 L150.449525,100.995817 L150.449525,100.995817 L150.357533,98.6236633 L150.357533,98.6236633 L150.24621,96.0298276 L150.24621,96.0298276 L150.133407,93.6794358 C150.123945,93.4937133 150.114468,93.3105267 150.104975,93.1298759 C149.500833,92.8376468 148.615131,92.5571068 147.44787,92.2882559 C146.280608,92.0194051 145.001468,91.7826995 143.61045,91.5781391 C142.219432,91.3735787 140.8713,91.2099304 139.566056,91.0871941 L138.727384,91.0144615 C138.592854,91.0038547 138.460948,90.9940055 138.331667,90.9849139 L137.58747,90.939456 C137.231118,90.9212729 136.898384,90.9099084 136.589269,90.9053626 L136.288027,90.9030898 L138.100452,145.801259 C136.862334,141.335997 135.519797,136.821057 134.07284,132.256437 C132.625883,127.691818 131.087559,123.106743 129.457867,118.501211 C127.828176,113.89568 126.114576,109.307682 124.317067,104.737218 C122.519559,100.166754 120.640006,95.6781141 118.67841,91.2712985 C118.459626,91.2193466 118.230621,91.167972 117.991395,91.1171747 L117.243055,90.9665143 C116.593886,90.8424071 115.880835,90.7219077 115.103904,90.605016 C113.705427,90.394611 112.267793,90.2221958 110.791002,90.0877704 L108.96111,89.9294299 L108.96111,89.9294299 L107.81767,89.839972 C107.632196,89.8261359 107.449271,89.8128365 107.268896,89.8000738 L106.097437,89.7228221 L106.097437,89.7228221 L105.257658,89.6771764 L105.257658,89.6771764 L104.558512,89.649789 L104.558512,89.649789 L104.170545,89.6416742 C104.111092,89.6406598 104.054244,89.6406598 104,89.6406598 Z" id="Shape" fill="#F2C231" fill-rule="nonzero"></path>
    </g>
</svg>